<?xml version="1.0" encoding="UTF-8"?>
<svg version="1.1" xmlns="http://www.w3.org/2000/svg" width="520" height="480">
<path d="M0 0 C37.72707866 -0.89363832 75.66648606 12.52319639 104.41796875 37.16015625 C104.41796875 37.82015625 104.41796875 38.48015625 104.41796875 39.16015625 C104.99417969 39.41925781 105.57039062 39.67835937 106.1640625 39.9453125 C108.59606662 41.25615007 110.42509296 42.75613459 112.48046875 44.59765625 C113.15207031 45.19449219 113.82367188 45.79132812 114.515625 46.40625 C116.19341665 47.95312567 117.81956118 49.53187191 119.41796875 51.16015625 C120.07796875 50.31453125 120.73796875 49.46890625 121.41796875 48.59765625 C137.93682218 28.91268924 164.14586869 14.42288697 188.41796875 7.16015625 C189.40152344 6.80308594 190.38507813 6.44601563 191.3984375 6.078125 C217.97484817 -3.2955892 256.16949595 -3.47637059 282.453125 7.359375 C284.78571597 8.31003335 287.15900281 9.0970474 289.54296875 9.91015625 C296.45747211 12.39976646 302.90853261 15.77715002 309.41796875 19.16015625 C309.41796875 19.82015625 309.41796875 20.48015625 309.41796875 21.16015625 C310.65546875 21.46953125 310.65546875 21.46953125 311.91796875 21.78515625 C316.43022871 23.5578298 319.66678101 26.1333358 323.41796875 29.16015625 C324.72507812 30.18882813 324.72507812 30.18882813 326.05859375 31.23828125 C334.70925274 38.14914291 343.57343245 45.60262042 349.41796875 55.16015625 C349.41796875 55.82015625 349.41796875 56.48015625 349.41796875 57.16015625 C350.40796875 57.49015625 351.39796875 57.82015625 352.41796875 58.16015625 C354.03215269 60.53171998 355.49303758 62.86695924 356.91796875 65.34765625 C357.30855469 66.00830078 357.69914062 66.66894531 358.1015625 67.34960938 C364.41796875 78.12152778 364.41796875 78.12152778 364.41796875 82.16015625 C365.07796875 82.16015625 365.73796875 82.16015625 366.41796875 82.16015625 C367.25921191 84.40747727 368.09111707 86.6575441 368.91796875 88.91015625 C369.15644531 89.544375 369.39492188 90.17859375 369.640625 90.83203125 C370.86598633 94.19302232 371.41796875 96.52887212 371.41796875 100.16015625 C372.07796875 100.16015625 372.73796875 100.16015625 373.41796875 100.16015625 C381.01546365 129.73973639 380.26103869 160.49693567 373.41796875 190.16015625 C372.75796875 190.16015625 372.09796875 190.16015625 371.41796875 190.16015625 C371.33546875 191.23265625 371.25296875 192.30515625 371.16796875 193.41015625 C370.08235067 201.94432058 366.79231616 209.91462942 362.8203125 217.484375 C361.20115097 220.57386149 359.69255293 223.71046341 358.16796875 226.84765625 C352.70383803 237.87246776 346.16488766 248.25615261 339.265625 258.43359375 C337.07541104 261.66566425 334.95357145 264.94016147 332.83984375 268.22265625 C331.41796875 270.16015625 331.41796875 270.16015625 329.62890625 271.89453125 C325.8431898 275.77388733 322.83060149 280.27885715 319.6640625 284.66796875 C319.14714844 285.37179687 318.63023437 286.075625 318.09765625 286.80078125 C317.63085449 287.44563477 317.16405273 288.09048828 316.68310547 288.75488281 C316.05686279 289.45049316 316.05686279 289.45049316 315.41796875 290.16015625 C314.75796875 290.16015625 314.09796875 290.16015625 313.41796875 290.16015625 C313.01578125 291.02640625 313.01578125 291.02640625 312.60546875 291.91015625 C311.38867686 294.21565668 310.11462996 296.18071817 308.41796875 298.16015625 C307.75796875 298.16015625 307.09796875 298.16015625 306.41796875 298.16015625 C306.14984375 298.92328125 305.88171875 299.68640625 305.60546875 300.47265625 C304.4666237 303.05004243 303.60380204 304.42970489 301.41796875 306.16015625 C300.75796875 306.16015625 300.09796875 306.16015625 299.41796875 306.16015625 C299.02291138 307.03849121 299.02291138 307.03849121 298.61987305 307.93457031 C297.36474092 310.25871911 296.01110921 311.86623363 294.1875 313.76953125 C293.54876953 314.44242187 292.91003906 315.1153125 292.25195312 315.80859375 C291.25131836 316.84886719 291.25131836 316.84886719 290.23046875 317.91015625 C285.67807855 322.6754443 281.21112555 327.47360886 276.9309082 332.48657227 C274.96299504 334.66343925 272.74689686 336.38281638 270.41796875 338.16015625 C267.89981557 340.55547269 265.60992805 342.91246683 263.48046875 345.66015625 C261.06882359 348.5833625 258.35067955 350.76610661 255.41796875 353.16015625 C253.73707002 354.81246827 252.07263684 356.48157677 250.41796875 358.16015625 C237.42232289 371.31545378 237.42232289 371.31545378 231.17578125 376.62109375 C229.33869851 378.22956175 227.62889088 379.91854493 225.91796875 381.66015625 C222.27981689 385.34848952 218.55501713 389.03121621 214.41796875 392.16015625 C213.75796875 392.16015625 213.09796875 392.16015625 212.41796875 392.16015625 C212.07765625 393.02640625 212.07765625 393.02640625 211.73046875 393.91015625 C210.07035236 396.75607006 208.02608918 398.15857546 205.41796875 400.16015625 C202.97938195 402.53777838 200.60446754 404.96832893 198.23046875 407.41015625 C194.08309563 411.46536553 189.74936098 415.30343714 185.41796875 419.16015625 C184.66386719 419.84207031 183.90976562 420.52398437 183.1328125 421.2265625 C182.44316406 421.84402344 181.75351562 422.46148437 181.04296875 423.09765625 C180.43710937 423.64292969 179.83125 424.18820312 179.20703125 424.75 C177.41796875 426.16015625 177.41796875 426.16015625 175.31640625 427.1015625 C172.91593246 428.4400983 172.57419797 429.71059553 171.41796875 432.16015625 C169.6484375 433.94140625 169.6484375 433.94140625 167.60546875 435.66015625 C166.53425781 436.56894531 166.53425781 436.56894531 165.44140625 437.49609375 C163.88493166 438.77612884 162.31123705 440.03524643 160.73046875 441.28515625 C158.28966788 443.19015621 158.28966788 443.19015621 155.85546875 445.78515625 C153.71578611 447.86997524 152.14713753 449.04827267 149.41796875 450.16015625 C149.41796875 450.82015625 149.41796875 451.48015625 149.41796875 452.16015625 C148.125 453.46484375 148.125 453.46484375 146.23046875 455.03515625 C142.34248273 458.33510168 138.58885687 461.75085672 134.85546875 465.22265625 C133.7296094 466.26089696 132.60331821 467.29866963 131.4765625 468.3359375 C129.70550002 469.96665367 127.94813818 471.60678531 126.203125 473.265625 C123.89038477 475.39618 121.9306487 476.99353526 118.91796875 477.97265625 C115.46349109 476.84995101 113.72750388 474.76631071 111.28125 472.13671875 C109.53168253 470.28078345 107.73042663 468.62867288 105.79296875 466.97265625 C102.13651653 463.81932052 98.58337077 460.56717967 95.04296875 457.28515625 C86.836449 449.68948538 78.57459862 442.19798947 69.97070312 435.05249023 C66.60720413 432.24104379 63.49897288 429.27533951 60.41796875 426.16015625 C58.55270992 424.44119223 56.67758834 422.73287142 54.79296875 421.03515625 C49.67578125 416.42267765 49.67578125 416.42267765 47.70703125 414.41796875 C46.41971668 413.03412832 46.41971668 413.03412832 44.41796875 412.16015625 C44.41796875 411.50015625 44.41796875 410.84015625 44.41796875 410.16015625 C43.75796875 410.16015625 43.09796875 410.16015625 42.41796875 410.16015625 C40.71934359 408.52607298 39.05869056 406.85237004 37.41796875 405.16015625 C34.51106345 402.54354919 31.58292843 399.95279576 28.6484375 397.3671875 C27.91238281 396.63886719 27.17632812 395.91054688 26.41796875 395.16015625 C26.41796875 394.50015625 26.41796875 393.84015625 26.41796875 393.16015625 C25.83273438 392.89203125 25.2475 392.62390625 24.64453125 392.34765625 C17.7521953 388.67174374 12.30760726 382.09445687 6.890625 376.59375 C4.025581 373.77396736 1.02285834 371.17864732 -2.0859375 368.6328125 C-3.58203125 367.16015625 -3.58203125 367.16015625 -4.58203125 364.16015625 C-5.90417113 363.47155742 -7.23972714 362.80857116 -8.58203125 362.16015625 C-10.05770424 360.86104619 -11.48346607 359.50433811 -12.87231445 358.11279297 C-13.71031082 357.27787323 -14.54830719 356.44295349 -15.41169739 355.58273315 C-16.75864937 354.2250029 -16.75864937 354.2250029 -18.1328125 352.83984375 C-19.06498093 351.9072171 -19.99714935 350.97459045 -20.95756531 350.01370239 C-22.93177581 348.0379289 -24.90258786 346.05884781 -26.87084961 344.07714844 C-29.3737623 341.5573515 -31.88310037 339.04408063 -34.39484882 336.53309441 C-36.34187313 334.58579573 -38.28626134 332.63588225 -40.22981834 330.68512344 C-41.59741331 329.31286368 -42.96645053 327.94204173 -44.33552551 326.57125854 C-48.76567518 322.10775752 -53.06520089 317.59267738 -57.14421082 312.80471802 C-58.42739088 311.33703205 -59.81200045 309.95947204 -61.20703125 308.59765625 C-63.58664734 306.15541869 -65.40412357 303.64006019 -67.3359375 300.84765625 C-69.16981545 298.3641601 -71.37526982 296.31309423 -73.58203125 294.16015625 C-79.37169086 287.8822121 -84.42022991 280.95244475 -89.58203125 274.16015625 C-90.15308594 273.4125 -90.72414062 272.66484375 -91.3125 271.89453125 C-109.31415728 248.1497179 -109.31415728 248.1497179 -110.58203125 241.16015625 C-111.24203125 241.16015625 -111.90203125 241.16015625 -112.58203125 241.16015625 C-114.37772901 237.76643989 -116.16787149 234.36982334 -117.95703125 230.97265625 C-118.46492188 230.01294922 -118.9728125 229.05324219 -119.49609375 228.06445312 C-119.9859375 227.13310547 -120.47578125 226.20175781 -120.98046875 225.2421875 C-121.43083496 224.38858643 -121.88120117 223.53498535 -122.34521484 222.65551758 C-125.58203125 216.12502005 -125.58203125 216.12502005 -125.58203125 212.16015625 C-126.24203125 212.16015625 -126.90203125 212.16015625 -127.58203125 212.16015625 C-129.04178531 207.83473747 -130.48578828 203.50453869 -131.91503906 199.16894531 C-132.49912605 197.40984293 -133.09796417 195.65565255 -133.69921875 193.90234375 C-144.34741638 161.62757419 -144.08453018 121.8345404 -131.58203125 90.16015625 C-131.00388672 88.690625 -131.00388672 88.690625 -130.4140625 87.19140625 C-130.07761719 86.35609375 -129.74117187 85.52078125 -129.39453125 84.66015625 C-129.05035156 83.80421875 -128.70617187 82.94828125 -128.3515625 82.06640625 C-127.97064453 81.1228125 -127.97064453 81.1228125 -127.58203125 80.16015625 C-126.92203125 80.16015625 -126.26203125 80.16015625 -125.58203125 80.16015625 C-125.27265625 78.96390625 -124.96328125 77.76765625 -124.64453125 76.53515625 C-116.97226635 53.83803925 -93.91086368 32.45395204 -73.58203125 21.16015625 C-72.92203125 21.16015625 -72.26203125 21.16015625 -71.58203125 21.16015625 C-71.58203125 20.50015625 -71.58203125 19.84015625 -71.58203125 19.16015625 C-68.31882476 17.54014077 -65.0452232 15.94225511 -61.76953125 14.34765625 C-60.86009766 13.89583984 -59.95066406 13.44402344 -59.01367188 12.97851562 C-53.46063974 10.29029865 -48.08349837 8.28019508 -42.08325195 6.8293457 C-39.47888383 6.13255966 -37.08117295 5.16466858 -34.58203125 4.16015625 C-31.93230132 3.57782864 -29.3151715 3.0543535 -26.64453125 2.59765625 C-25.89308838 2.46834717 -25.14164551 2.33903809 -24.36743164 2.20581055 C-16.25671112 0.86531608 -8.20526913 0.3668659 0 0 Z M116.41796875 114.16015625 C116.05445313 115.21203125 116.05445313 115.21203125 115.68359375 116.28515625 C115.3484375 117.23390625 115.01328125 118.18265625 114.66796875 119.16015625 C114.18070313 120.55234375 114.18070313 120.55234375 113.68359375 121.97265625 C112.74367255 124.33986521 111.76641955 126.50332249 110.609375 128.7578125 C107.81390663 134.24338259 105.48415574 139.92212727 103.10546875 145.59765625 C102.62126465 146.74693604 102.13706055 147.89621582 101.63818359 149.08032227 C98.61996175 156.25601153 95.64683407 163.44917282 92.70214844 170.65527344 C90.79682749 175.29703345 88.77127762 179.86890857 86.6640625 184.421875 C84.65827252 188.82958277 82.78642578 193.29414088 80.890625 197.75 C79.58912762 200.76381222 78.2379197 203.74540296 76.85546875 206.72265625 C74.53557513 211.77139909 72.5607499 216.92260262 70.59375 222.1171875 C69.35306646 225.32812595 68.00295746 228.461426 66.578125 231.59375 C65.01144438 235.05943742 63.49887896 238.54810719 61.98046875 242.03515625 C59.98273852 246.61921006 57.95794124 251.18538497 55.85546875 255.72265625 C52.160929 263.79455498 48.9386477 272.07762855 45.82861328 280.38989258 C45.43030807 281.4538903 45.43030807 281.4538903 45.0239563 282.53938293 C44.72399246 283.34166573 44.72399246 283.34166573 44.41796875 284.16015625 C45.35535385 284.17046371 46.29273895 284.18077118 47.25852966 284.19139099 C56.07325517 284.28895797 64.88790745 284.39167576 73.70251369 284.49949551 C78.23467461 284.55476547 82.76684193 284.60819184 87.29907227 284.6574707 C91.66925423 284.70505436 96.03935523 284.75739473 100.40944099 284.813097 C102.0804551 284.83354783 103.75149144 284.85225631 105.42254448 284.86923027 C107.75500435 284.89321418 110.08730982 284.92327645 112.41967773 284.95483398 C113.11738785 284.96058945 113.81509796 284.96634491 114.53395081 284.97227478 C119.30391659 285.04610409 119.30391659 285.04610409 120.41796875 286.16015625 C120.54322026 289.02028522 120.60406596 291.85743779 120.62329102 294.71899414 C120.63319061 295.61646866 120.64309021 296.51394318 120.65328979 297.43861389 C120.68500415 300.41998613 120.70970131 303.40137434 120.734375 306.3828125 C120.75493596 308.44405036 120.77593219 310.50528391 120.79734802 312.56651306 C120.85265735 318.00314869 120.90202741 323.43982292 120.95019531 328.87652588 C121.00034581 334.41967217 121.05606547 339.96276211 121.11132812 345.50585938 C121.21901801 356.39057691 121.32043877 367.27534328 121.41796875 378.16015625 C126.17846696 371.01940893 132.41796875 359.93683066 132.41796875 351.16015625 C133.07796875 351.16015625 133.73796875 351.16015625 134.41796875 351.16015625 C134.8046875 350.10957031 135.19140625 349.05898438 135.58984375 347.9765625 C138.32141973 340.59770276 141.10489012 333.3016813 144.41796875 326.16015625 C146.69715142 321.36722377 146.69715142 321.36722377 147.41796875 316.16015625 C148.07796875 316.16015625 148.73796875 316.16015625 149.41796875 316.16015625 C150.25516258 313.86983314 151.08786165 311.57804668 151.91796875 309.28515625 C152.15644531 308.63417969 152.39492188 307.98320312 152.640625 307.3125 C153.96674408 303.82558036 153.96674408 303.82558036 154.41796875 300.16015625 C155.07796875 300.16015625 155.73796875 300.16015625 156.41796875 300.16015625 C156.79308594 299.13277344 157.16820312 298.10539063 157.5546875 297.046875 C159.9255472 290.61090577 162.2949401 284.24096682 165.23046875 278.03515625 C166.93835553 274.40589685 168.08973451 271.20837854 168.41796875 267.16015625 C169.07796875 267.16015625 169.73796875 267.16015625 170.41796875 267.16015625 C170.79308594 266.13277344 171.16820312 265.10539063 171.5546875 264.046875 C174.14700148 257.00462112 176.81226794 250.07186931 180 243.2734375 C182.27406849 238.28051026 184.36492832 233.21075726 186.47607422 228.1472168 C188.46367633 223.38978536 190.52091794 218.67644347 192.68139648 213.99462891 C193.54217011 212.18029659 193.54217011 212.18029659 193.41796875 210.16015625 C168.66796875 209.83015625 143.91796875 209.50015625 118.41796875 209.16015625 C118.08796875 177.81015625 117.75796875 146.46015625 117.41796875 114.16015625 C117.08796875 114.16015625 116.75796875 114.16015625 116.41796875 114.16015625 Z " fill="#E50AA7" transform="translate(140.58203125,0.83984375)"/>
</svg>
